<?xml version="1.0" encoding="UTF-8"?>
<svg width="44px" height="55px" viewBox="0 0 44 55" version="1.1" xmlns="http://www.w3.org/2000/svg" xmlns:xlink="http://www.w3.org/1999/xlink">
    <!-- Generator: Sketch 63.1 (92452) - https://sketch.com -->
    <title>logo-curro</title>
    <desc>Created with Sketch.</desc>
    <g id="Page-1" stroke="none" stroke-width="1" fill="none" fill-rule="evenodd">
        <g id="logo-curro" fill-rule="nonzero">
            <g id="currofy-logo-2">
                <path d="M25.8097561,14.0383495 C25.7560976,12.0038835 24.5219512,8.88009709 21.2058537,6.21553398 C18.6731707,4.18106796 14.0960976,1.79417476 6.64829268,1.98106796 L6.61073171,0.533980583 C20.4707317,0.19223301 27.1404878,8.37815534 27.28,14.0223301 L25.8097561,14.0383495 Z" id="Path" fill="#FF594F"></path>
                <path d="M25.004878,15.0635922 C24.9512195,13.0291262 23.7170732,9.90533981 20.4009756,7.2407767 C17.8682927,5.20631068 13.2912195,2.81941748 5.84341463,3.00631068 L5.80585366,1.54320388 C19.6658537,1.20145631 26.3356098,9.38737864 26.475122,15.0315534 L25.004878,15.0635922 Z" id="Path" fill="#FF453A"></path>
                <path d="M24.2053659,16.0941748 C24.1517073,14.0597087 22.917561,10.9359223 19.5960976,8.27135922 C17.0634146,6.2368932 12.4863415,3.85533981 5.03853659,4.0368932 L5.00097561,2.57378641 C18.8556098,2.23203883 25.5307317,10.4179612 25.6702439,16.0621359 L24.2053659,16.0941748 Z" id="Path" fill="#EF4136"></path>
                <path d="M23.4004878,17.1194175 C23.3468293,15.0849515 22.1126829,11.961165 18.7912195,9.29660194 C16.2585366,7.26213592 11.6814634,4.87524272 4.23365854,5.06213592 L4.19609756,3.59902913 C18.0507317,3.25728155 24.7312195,11.4432039 24.8760976,17.0873786 L23.4004878,17.1194175 Z" id="Path" fill="#D63A31"></path>
                <path d="M22.6009756,18.1553398 C22.5473171,16.1208738 21.3131707,12.9970874 17.9917073,10.3325243 C15.4590244,8.29805825 10.8819512,5.91116505 3.43414634,6.09805825 L3.39658537,4.63495146 C17.2512195,4.27184466 23.9317073,12.4684466 24.0712195,18.1072816 L22.6009756,18.1553398 Z" id="Path" fill="#B8322A"></path>
                <path d="M25.0531707,38.3558252 L33.1019512,44.2029126 L35.8868293,44.2029126 C36.2325867,44.2053527 36.5479709,44.3999118 36.7039571,44.7069953 C36.8599434,45.0140788 36.8303629,45.3821692 36.6273171,45.6606796 L33.7190244,49.5961165 C33.4354854,49.9797265 32.9043453,50.0840479 32.4956098,49.8364078 L22,43.4179612 L25.0531707,38.3558252 Z" id="Path" fill="#E8E3CF"></path>
                <path d="M43.5385366,19.4368932 L43.5385366,19.4368932 C43.3057002,19.0416718 42.8157932,18.8776434 42.3902439,19.0524272 L26.2229268,25.5296117 C26.0624162,25.5946778 25.8788041,25.5647558 25.7475323,25.4521399 C25.6162606,25.3395239 25.5594674,25.163206 25.6004878,24.9956311 L27.0653659,18.7480583 L27.0653659,18.7480583 C28.3098683,17.6935112 29.0437091,16.1610918 29.0829268,14.5349515 C29.1262144,11.3928853 26.6468166,8.7881846 23.4917073,8.66116505 C20.7902752,8.58453558 18.3988573,10.3880012 17.7424875,12.9968857 C17.0861176,15.6057703 18.3414705,18.3178417 20.7604878,19.5169903 L20.7604878,19.5169903 L19.4190244,25.3694175 C19.357875,25.6331863 19.1829128,25.8566775 18.9408667,25.9802012 C18.6988205,26.1037249 18.4143439,26.1146996 18.1634146,26.0101942 L1.6097561,19.1165049 C1.1385077,18.9224323 0.597751853,19.1381587 0.391707317,19.6024272 L0.391707317,19.6024272 C0.260065872,19.9120759 0.357466632,20.2711499 0.627804878,20.4728155 L2.01219512,21.5033981 L1.77609756,22.0373786 C1.63819846,22.3635085 1.70081606,22.7394674 1.93707317,23.0038835 L2.93512195,24.1199029 L2.7795122,25.1878641 C2.73354042,25.5077524 2.85987816,25.8281469 3.11219512,26.0315534 L14.0478049,34.9063107 C14.2343152,35.0582128 14.353717,35.2766922 14.3804878,35.5150485 L15.2604878,43.3912621 L12.9156098,51.6359223 C12.815606,51.9849841 12.866455,52.359737 13.0559074,52.6699037 C13.2453598,52.9800704 13.5562404,53.1975322 13.9136585,53.2699029 L20.4707317,54.6262136 C20.8075754,54.7304898 21.1746855,54.6345655 21.4166009,54.379062 C21.6585163,54.1235585 21.7329156,53.7531745 21.6082927,53.4247573 L20.7926829,51.288835 C20.7926829,51.288835 22.2843902,41.2393204 25.0531707,40.0752427 C29.0829268,38.3558252 29.5121951,35.0825243 29.5121951,35.0825243 C29.5451635,35.0458846 29.5810526,35.0119554 29.6195122,34.981068 L40.5980488,26.0208738 C40.8209114,25.8473211 40.9514461,25.5816145 40.9521951,25.3 L40.9521951,24.4830097 L42.0682927,23.5271845 C42.3648194,23.2750536 42.47007,22.8646451 42.3312195,22.5019417 L41.9878049,21.615534 L43.3078049,20.6116505 C43.6699994,20.333134 43.768696,19.8306259 43.5385366,19.4368932 L43.5385366,19.4368932 Z" id="Path" fill="#F4EFD9"></path>
                <path d="M18.1687805,29.2194175 L1.6097561,19.111165 C1.14004304,18.9154166 0.59976937,19.1352561 0.402439024,19.6024272 L0.402439024,19.6024272 C0.270797579,19.9120759 0.368198339,20.2711499 0.638536585,20.4728155 L2.02292683,21.5033981 L1.78682927,22.0373786 C1.64893016,22.3635085 1.71154776,22.7394674 1.94780488,23.0038835 L2.94585366,24.1199029 L2.7902439,25.1878641 C2.74427213,25.5077524 2.87060986,25.8281469 3.12292683,26.0315534 L14.0478049,34.9063107 C14.2343152,35.0582128 14.353717,35.2766922 14.3804878,35.5150485 L18.1687805,29.2194175 Z" id="Path" fill="#D8D0B2"></path>
                <path d="M30.0487805,34.7087379 L40.5980488,26.0208738 C40.8209114,25.8473211 40.9514461,25.5816145 40.9521951,25.3 L40.9521951,24.4830097 L42.0682927,23.5271845 C42.3648194,23.2750536 42.47007,22.8646451 42.3312195,22.5019417 L41.9878049,21.615534 L43.3078049,20.6116505 C43.67185,20.3346694 43.7728932,19.8319057 43.5439024,19.4368932 L43.5439024,19.4368932 C43.3106674,19.0389435 42.8172669,18.8745138 42.3902439,19.0524272 L28.1868293,27.8257282 L30.0487805,34.7087379 Z" id="Path" fill="#E0D9C1"></path>
                <path d="M22.9604878,11.5553398 C22.4239024,11.7902913 22.1180488,12.1160194 22.1180488,12.4470874 L22.4614634,12.4470874 C22.4614634,12.2708738 22.7190244,12.0359223 23.1,11.8703883 C23.4469682,11.6663099 23.8656708,11.6215276 24.2482927,11.7475728 L24.4790244,11.4912621 C24.1463415,11.2135922 23.4756098,11.331068 22.9604878,11.5553398 Z" id="Path" fill="#333638"></path>
                <path d="M23.4112195,14.8873786 C23.3469899,14.781051 23.2095037,14.7447239 23.100732,14.8053403 C22.9919603,14.8659568 22.9512435,15.0015932 23.0087805,15.1116505 C23.9035269,16.8647831 25.6398446,18.0382153 27.6073171,18.2194175 C27.7364095,18.0760738 27.8581888,17.9263708 27.9721951,17.7708738 C25.2517073,17.7708738 23.797561,15.5815534 23.4112195,14.8873786 Z" id="Path" fill="#333638"></path>
                <ellipse id="Oval" fill="#EF4136" transform="translate(22.894910, 14.586811) rotate(-30.000000) translate(-22.894910, -14.586811) " cx="22.89491" cy="14.5868111" rx="1.16297888" ry="1"></ellipse>
                <path d="M28.3907317,13.3495146 C28.3682492,12.4776045 28.7287412,11.6392399 29.3780488,11.0533981 C28.895122,11.0800971 28.3692683,11.0907767 27.795122,11.0854369 C25.1443902,11.0480583 24.8760976,16.6334951 28.1814634,16.8524272 C29.0342504,16.8730486 29.8815251,16.7109721 30.6658537,16.3771845 C29.3834146,16.1635922 28.3907317,14.8873786 28.3907317,13.3495146 Z" id="Path" fill="#B8322A"></path>
                <path d="M30.875122,12.4203883 C30.8728613,11.8586603 31.0190487,11.3062132 31.2990244,10.8184466 C30.6648805,10.9405687 30.0230359,11.0190717 29.3780488,11.0533981 C28.7287412,11.6392399 28.3682492,12.4776045 28.3907317,13.3495146 C28.3907317,14.8980583 29.3834146,16.1742718 30.6658537,16.3825243 C31.3820204,16.0945454 32.0729985,15.7480545 32.7317073,15.3466019 C31.5626649,14.8490423 30.8239053,13.6846635 30.875122,12.4203883 Z" id="Path" fill="#D63A31"></path>
                <path d="M33.4346341,11.5606796 C33.3175022,11.0975116 33.3046761,10.6143069 33.3970732,10.1456311 C32.7231425,10.4355543 32.0197125,10.652183 31.2990244,10.7917476 C31.0190487,11.2795142 30.8728613,11.8319612 30.875122,12.3936893 C30.8124858,13.6675279 31.5531597,14.8455751 32.7317073,15.3466019 C33.5588,14.8574104 34.3577697,14.3225956 35.124878,13.7446602 C34.2619652,13.304422 33.6419958,12.5033535 33.4346341,11.5606796 Z" id="Path" fill="#EF4136"></path>
                <path d="M35.9243902,10.4927184 C35.7770718,9.93310845 35.7863495,9.3440609 35.9512195,8.78932039 C35.1287627,9.29341485 34.2757508,9.74638385 33.3970732,10.1456311 C33.1333337,11.5804462 33.8318548,13.0203588 35.124878,13.7072816 C35.7741463,13.2160194 36.3965854,12.7140777 36.9707317,12.2174757 C36.4533505,11.7622086 36.0882445,11.1603791 35.9243902,10.4927184 L35.9243902,10.4927184 Z" id="Path" fill="#FF453A"></path>
                <path d="M39.7073171,8.00970874 C39.323464,7.52676351 38.6531507,7.37556341 38.097561,7.64660194 C37.2712195,8.04708738 36.5843902,8.44223301 35.9512195,8.81067961 C35.7828202,9.36444321 35.7698312,9.95349596 35.9136585,10.5140777 C36.080782,11.1927767 36.4558145,11.8029782 36.9868293,12.2601942 C38.06,11.331068 38.9990244,10.45 39.6214634,9.83592233 C40.1103061,9.3364967 40.1471693,8.55237117 39.7073171,8.00970874 L39.7073171,8.00970874 Z" id="Path" fill="#FF594F"></path>
            </g>
        </g>
    </g>
</svg>