<?xml version="1.0" encoding="UTF-8"?>
<svg width="377px" height="110px" viewBox="0 0 377 110" version="1.1" xmlns="http://www.w3.org/2000/svg" xmlns:xlink="http://www.w3.org/1999/xlink">
    <!-- Generator: Sketch 63.1 (92452) - https://sketch.com -->
    <title>Group</title>
    <desc>Created with Sketch.</desc>
    <g id="Page-1" stroke="none" stroke-width="1" fill="none" fill-rule="evenodd">
        <g id="Group">
            <g id="logo-curro" fill-rule="nonzero">
                <circle id="Currofy" fill="#333638" cx="55" cy="55" r="55"></circle>
                <g id="currofy-logo-2" transform="translate(14.000000, 7.000000)">
                    <path d="M48.1,26.29 C48,22.48 45.7,16.63 39.52,11.64 C34.8,7.83 26.27,3.36 12.39,3.71 L12.32,1 C38.15,0.36 50.58,15.69 50.84,26.26 L48.1,26.29 Z" id="Path" fill="#FF594F"></path>
                    <path d="M46.6,28.21 C46.5,24.4 44.2,18.55 38.02,13.56 C33.3,9.75 24.77,5.28 10.89,5.63 L10.82,2.89 C36.65,2.25 49.08,17.58 49.34,28.15 L46.6,28.21 Z" id="Path" fill="#FF453A"></path>
                    <path d="M45.11,30.14 C45.01,26.33 42.71,20.48 36.52,15.49 C31.8,11.68 23.27,7.22 9.39,7.56 L9.32,4.82 C35.14,4.18 47.58,19.51 47.84,30.08 L45.11,30.14 Z" id="Path" fill="#EF4136"></path>
                    <path d="M43.61,32.06 C43.51,28.25 41.21,22.4 35.02,17.41 C30.3,13.6 21.77,9.13 7.89,9.48 L7.82,6.74 C33.64,6.1 46.09,21.43 46.36,32 L43.61,32.06 Z" id="Path" fill="#D63A31"></path>
                    <path d="M42.12,34 C42.02,30.19 39.72,24.34 33.53,19.35 C28.81,15.54 20.28,11.07 6.4,11.42 L6.33,8.68 C32.15,8 44.6,23.35 44.86,33.91 L42.12,34 Z" id="Path" fill="#B8322A"></path>
                    <path d="M46.69,71.83 L61.69,82.78 L66.88,82.78 C67.5243662,82.7845695 68.1121276,83.1489258 68.4028292,83.7240094 C68.6935308,84.299093 68.6384035,84.988426 68.26,85.51 L62.84,92.88 C62.3115864,93.5983968 61.3217344,93.7937623 60.56,93.33 L41,81.31 L46.69,71.83 Z" id="Path" fill="#E8E3CF"></path>
                    <path d="M81.14,36.4 L81.14,36.4 C80.7060777,35.6598581 79.7930691,35.3526777 79,35.68 L48.87,47.81 C48.5708666,47.9318512 48.2286804,47.8758155 47.9840375,47.6649165 C47.7393947,47.4540175 47.6335529,47.1238221 47.71,46.81 L50.44,35.11 L50.44,35.11 C52.7593,33.135121 54.1269124,30.2653173 54.2,27.22 C54.2806724,21.335767 49.6599764,16.457873 43.78,16.22 C38.7455129,16.0764939 34.2887796,19.4538931 33.0655448,24.3396224 C31.8423101,29.2253517 34.1818315,34.3043218 38.69,36.55 L38.69,36.55 L36.19,47.51 C36.0760398,48.0039671 35.7499739,48.4225051 35.2988879,48.6538313 C34.8478018,48.8851575 34.3176409,48.9057101 33.85,48.71 L3,35.8 C2.12176435,35.436555 1.11399209,35.8405518 0.73,36.71 L0.73,36.71 C0.484668215,37.2898877 0.666187813,37.9623353 1.17,38.34 L3.75,40.27 L3.31,41.27 C3.05300622,41.8807523 3.16970265,42.5848208 3.61,43.08 L5.47,45.17 L5.18,47.17 C5.09432533,47.7690635 5.32977293,48.3690751 5.8,48.75 L26.18,65.37 C26.5275874,65.6544713 26.7501089,66.0636237 26.8,66.51 L28.44,81.26 L24.07,96.7 C23.8836294,97.3536974 23.9783935,98.0555074 24.3314639,98.6363651 C24.6845342,99.2172228 25.2639025,99.6244694 25.93,99.76 L38.15,102.3 C38.7777542,102.495281 39.4619138,102.315641 39.9127562,101.837152 C40.3635985,101.358664 40.5022517,100.665036 40.27,100.05 L38.75,96.05 C38.75,96.05 41.53,77.23 46.69,75.05 C54.2,71.83 55,65.7 55,65.7 C55.061441,65.6313838 55.1283252,65.5678438 55.2,65.51 L75.66,48.73 C76.0753349,48.4049831 76.3186041,47.9073871 76.32,47.38 L76.32,45.85 L78.4,44.06 C78.9526179,43.5878276 79.1487667,42.8192446 78.89,42.14 L78.25,40.48 L80.71,38.6 C81.3849989,38.0784146 81.5689334,37.137354 81.14,36.4 L81.14,36.4 Z" id="Path" fill="#F4EFD9"></path>
                    <path d="M33.86,54.72 L3,35.79 C2.12462566,35.4234164 1.11775201,35.8351159 0.75,36.71 L0.75,36.71 C0.504668215,37.2898877 0.686187813,37.9623353 1.19,38.34 L3.77,40.27 L3.33,41.27 C3.07300622,41.8807523 3.18970265,42.5848208 3.63,43.08 L5.49,45.17 L5.2,47.17 C5.11432533,47.7690635 5.34977293,48.3690751 5.82,48.75 L26.18,65.37 C26.5275874,65.6544713 26.7501089,66.0636237 26.8,66.51 L33.86,54.72 Z" id="Path" fill="#D8D0B2"></path>
                    <path d="M56,65 L75.66,48.73 C76.0753349,48.4049831 76.3186041,47.9073871 76.32,47.38 L76.32,45.85 L78.4,44.06 C78.9526179,43.5878276 79.1487667,42.8192446 78.89,42.14 L78.25,40.48 L80.71,38.6 C81.3884478,38.0812899 81.5767556,37.1397507 81.15,36.4 L81.15,36.4 C80.7153346,35.6547488 79.7958155,35.3468168 79,35.68 L52.53,52.11 L56,65 Z" id="Path" fill="#E0D9C1"></path>
                    <path d="M42.79,21.64 C41.79,22.08 41.22,22.69 41.22,23.31 L41.86,23.31 C41.86,22.98 42.34,22.54 43.05,22.23 C43.6966226,21.8478168 44.476932,21.7639518 45.19,22 L45.62,21.52 C45,21 43.75,21.22 42.79,21.64 Z" id="Path" fill="#333638"></path>
                    <path d="M43.63,27.88 C43.5102993,27.6808774 43.254075,27.6128465 43.0513642,27.7263646 C42.8486533,27.8398827 42.7727719,28.0938927 42.88,28.3 C44.5474819,31.5831393 47.7833467,33.7806578 51.45,34.12 C51.6905813,33.8515563 51.9175336,33.5712034 52.13,33.28 C47.06,33.28 44.35,29.18 43.63,27.88 Z" id="Path" fill="#333638"></path>
                    <ellipse id="Oval" fill="#EF4136" transform="translate(42.667787, 27.317119) rotate(-30.000000) translate(-42.667787, -27.317119) " cx="42.6677867" cy="27.3171189" rx="2.17" ry="1.76"></ellipse>
                    <path d="M52.91,25 C52.8681008,23.3671503 53.5399268,21.797122 54.75,20.7 C53.85,20.75 52.87,20.77 51.8,20.76 C46.86,20.69 46.36,31.15 52.52,31.56 C54.1092848,31.5986183 55.6882969,31.2950933 57.15,30.67 C54.76,30.27 52.91,27.88 52.91,25 Z" id="Path" fill="#B8322A"></path>
                    <path d="M57.54,23.26 C57.535787,22.2080365 57.8082271,21.1734539 58.33,20.26 C57.1481864,20.4887015 55.9520214,20.6357162 54.75,20.7 C53.5399268,21.797122 52.8681008,23.3671503 52.91,25 C52.91,27.9 54.76,30.29 57.15,30.68 C58.4846743,30.1406942 59.7724062,29.4918111 61,28.74 C58.8213301,27.8082064 57.4445508,25.6276425 57.54,23.26 Z" id="Path" fill="#D63A31"></path>
                    <path d="M62.31,21.65 C62.0917087,20.7826127 62.0678054,19.8777021 62.24,19 C60.9840382,19.5429471 59.6731006,19.9486337 58.33,20.21 C57.8082271,21.1234539 57.535787,22.1580365 57.54,23.21 C57.423269,25.5955522 58.8036158,27.8017134 61,28.74 C62.5414,27.8238776 64.030389,26.8223155 65.46,25.74 C63.8518443,24.915554 62.6964467,23.4153711 62.31,21.65 Z" id="Path" fill="#EF4136"></path>
                    <path d="M66.95,19.65 C66.6754519,18.6020031 66.6927423,17.4988777 67,16.46 C65.4672396,17.4040314 63.8775356,18.2523189 62.24,19 C61.7484855,21.6870173 63.0502749,24.3835811 65.46,25.67 C66.67,24.75 67.83,23.81 68.9,22.88 C67.9357896,22.0274089 67.2553647,20.9003462 66.95,19.65 L66.95,19.65 Z" id="Path" fill="#FF453A"></path>
                    <path d="M74,15 C73.2846374,14.0955753 72.0354173,13.8124187 71,14.32 C69.46,15.07 68.18,15.81 67,16.5 C66.6861649,17.5370482 66.6619582,18.6401833 66.93,19.69 C67.2414574,20.9610181 67.9403816,22.1037592 68.93,22.96 C70.93,21.22 72.68,19.57 73.84,18.42 C74.751025,17.484712 74.8197245,16.0162587 74,15 L74,15 Z" id="Path" fill="#FF594F"></path>
                </g>
            </g>
            <text id="Currofy" font-family="PTSans-Caption, PT Sans Caption" font-size="72" font-weight="normal">
                <tspan x="124" y="86" fill="#333638">Curro</tspan>
                <tspan x="313.36" y="86" fill="#B8322A">fy</tspan>
            </text>
        </g>
    </g>
</svg>