<?xml version="1.0" encoding="UTF-8"?>
<svg width="16px" height="20px" viewBox="0 0 16 20" version="1.1" xmlns="http://www.w3.org/2000/svg" xmlns:xlink="http://www.w3.org/1999/xlink">
    <!-- Generator: Sketch 63.1 (92452) - https://sketch.com -->
    <title>Shape</title>
    <desc>Created with Sketch.</desc>
    <g id="Page-1" stroke="none" stroke-width="1" fill="none" fill-rule="evenodd">
        <g id="tower-of-hercules-svgrepo-com" fill="#2AA015" fill-rule="nonzero">
            <path d="M0.405,19.805 L15.401,19.805 L15.401,19.012 L14.229,19.012 L14.229,18.664 L13.838,18.664 L13.836,18.608 C13.854,18.581 13.863,18.552 13.863,18.526 C13.863,18.148 12.148,17.824 9.713,17.686 L9.713,7.689 L10.219,7.246 L10.219,7.056 L8.891,6.831 L8.891,4.781 L9.102,4.533 L8.891,4.406 L8.891,4.11 L8.242,3.839 L8.224,3.839 L8.184,2.901 C8.184,2.901 8.295,2.774 8.279,2.697 C8.262,2.618 7.9,2.523 7.9,2.523 L7.9,1.67 L7.253,1.009 L6.614,1.648 L6.614,2.396 L6.465,2.396 L6.448,0.366 L6.212,0 L5.99,0.396 L5.903,3.839 L5.885,3.839 L5.297,4.449 L5.484,4.601 L5.484,6.949 L4.884,7.318 L4.57,7.318 L4.57,7.512 L4.287,7.688 L4.57,7.748 L4.57,17.689 C2.145,17.828 0.44,18.15 0.44,18.528 C0.44,18.545 0.443,18.56 0.452,18.578 L0.405,19.805 Z M8.545,8.626 L9.02,8.626 L9.02,9.698 L8.545,9.698 L8.545,8.626 Z M8.545,11 L9.02,11 L9.02,12.069 L8.545,12.069 L8.545,11 Z M8.545,13.37 L9.02,13.37 L9.02,14.444 L8.545,14.444 L8.545,13.37 Z M8.545,15.74 L9.02,15.74 L9.02,16.813 L8.545,16.813 L8.545,15.74 Z M7.111,8.626 L7.584,8.626 L7.584,9.698 L7.111,9.698 L7.111,8.626 Z M7.111,11 L7.584,11 L7.584,12.069 L7.111,12.069 L7.111,11 Z M7.111,13.37 L7.584,13.37 L7.584,14.444 L7.111,14.444 L7.111,13.37 Z M7.111,15.74 L7.584,15.74 L7.584,16.813 L7.111,16.813 L7.111,15.74 Z" id="Shape"></path>
        </g>
    </g>
</svg>